<?xml version="1.0" ?><svg height="60px" id="Layer_1" style="enable-background:new 0 0 60 60;" version="1.1" viewBox="0 0 60 60" width="60px" xml:space="preserve" xmlns="http://www.w3.org/2000/svg" xmlns:xlink="http://www.w3.org/1999/xlink"><style type="text/css">
	.st0{fill-rule:evenodd;clip-rule:evenodd;fill:#6ED49A;}
	.st1{fill-rule:evenodd;clip-rule:evenodd;fill:#4D5770;}
	.st2{fill:#4D5770;}
	.st3{fill:#ABB8BF;}
	.st4{fill:#D9E3E6;}
	.st5{fill-rule:evenodd;clip-rule:evenodd;fill:#E8D0AB;}
	.st6{fill:#E8D0AB;}
	.st7{opacity:0.7;}
	.st8{fill:#7BA3E8;}
	.st9{fill-rule:evenodd;clip-rule:evenodd;fill:#FA7E69;}
	.st10{fill-rule:evenodd;clip-rule:evenodd;fill:#FFBE4D;}
	.st11{opacity:0.1;fill-rule:evenodd;clip-rule:evenodd;}
	.st12{fill-rule:evenodd;clip-rule:evenodd;fill:#7BA3E8;}
	.st13{fill:#FFBE4D;}
	.st14{fill:#FFFFFF;}
	.st15{fill:#6ED4BF;}
	.st16{fill:#3CC2A7;}
	.st17{fill:#5B6875;}
	.st18{fill-rule:evenodd;clip-rule:evenodd;fill:#D9E3E6;}
	.st19{fill:#FA4E70;}
	.st20{fill:#FFCC00;}
	.st21{fill:#6ED49A;}
	.st22{fill:#6C7FE0;}
	.st23{fill-rule:evenodd;clip-rule:evenodd;fill:#3CC2A7;}
	.st24{fill:#D9925F;}
	.st25{fill-rule:evenodd;clip-rule:evenodd;fill:#FFFFFF;}
</style><path class="st0" d="M57.3192139,36c-0.0560913-1.5111694-0.1350708-3.0701904-0.2470093-4.6149902h-5.5715332  C51.397522,32.9249268,51.3088379,34.4848633,51.234436,36L55,37L57.3192139,36z"/><path class="st1" d="M43.9302979,29c-0.0584717-3.1221313-0.123291-6.4023438-0.1929932-9.6453247h-9.0692139  C34.5980835,22.5893555,34.5266724,25.871582,34.458313,29l4.54179,1L43.9302979,29z"/><path class="st0" d="M59.3833427,32.5939026c-0.3937149-1.4803486-0.9347115-2.3071251-3.1590805-2.6454201  c-0.5601234,0.3124828-1.2382431,0.504652-1.9725151,0.504652c-0.7358551,0-1.415081-0.193222-1.9758873-0.5068645  C50.1012192,30.2613354,49.125,32.8125,48.875,32.625c-1.2516441-0.9387341-0.4663239-1.9526081-1.8125153-2.5625  C45.9878769,29.5756359,46.25,32.5,46.25,32.5c0.4296875,0.9765625,1.8672028,2.279808,2.6874847,2.4375  c0.2545509,0.0489311,1.6584282-0.8553696,2.4659767-2.3435974h2.4483032h0.8328323h2.4483032  c0.9657898,2.0120239,1.3785744,4.4998856,1.482666,6.4475899h0.1798935c0.6811218,0,1.1072845-0.5591736,1.1705513-1.2154312  C60.1078186,36.3549843,59.7851143,34.1043816,59.3833427,32.5939026z"/><path class="st5" d="M57.070591,25.0279808c0,0.4639721-0.0885773,1.151041-0.1578522,1.7955742  c-0.0189018,0.1758709-0.109375,0.5701122-0.1731377,0.6906738c-0.2640457,0.5524998-0.9000015,1.3294525-1.5555153,1.7261391  c-0.2158546,0.1306248-0.6800804,0.1615677-0.9323425,0.1615677c-0.2471809,0-0.71418-0.0419502-0.9323425-0.1561928  c-0.7018661-0.3675308-1.1763649-1.1329727-1.5384636-1.731514c-0.0672417-0.1280384-0.1662331-0.528801-0.1831512-0.7124214  c-0.0648041-0.7033596-0.1648941-1.3034534-0.1648941-1.7738266c0-2.1941719,1.2168808-2.831562,2.8188515-2.831562  S57.070591,22.8697777,57.070591,25.0279808z"/><path class="st9" d="M4.1556892,40.3258896c-0.2899406,2.8256989,0.0880561,6.9728317,0.0880561,6.9728317h0.2367072  c0.5408831,0,0.9737153-0.1635971,1.1907539-0.8147163c0.4638529-1.3915558,0.869607-6.0060158,0.869607-6.0060158  C5.8103161,40.4617767,4.7709417,40.4107857,4.1556892,40.3258896z"/><path class="st10" d="M11.583333,32.8333321c-0.875-1.5833321-1.4832287-2.130291-2.399189-2.4139061  c-0.6324482,0.3270226-1.3636146,0.531992-2.154254,0.531992c-0.7915874,0-1.5236492-0.2053909-2.1565719-0.5330982  c-0.917856,0.2831421-1.660506,0.8697071-2.1146402,1.948494C1.9571868,34.2709007,1.1336238,35.9668083,0,37.7195511  c0.8720264,0.5112381,1.4140272-0.0839157,2.0055976-0.6329231c1.0754678-0.9980812,2.7972908-4.1992531,2.7972908-4.1992531  h1.7661772h0.9152222h1.7661777c0,0,2.1227198,2.9105339,2.8328676,2.2792931c0.75-0.6666679,1.583334-2.5,2.583334-4.1250019  c0.4229841-0.6873493-0.708334-0.7083321-1.375-0.791666C12.416667,31.541666,12.041667,32.375,11.583333,32.8333321z"/><path class="st5" d="M9.8322182,26.0533237c0,0.4427834-0.1098566,1.5522995-0.3686008,2.1617985  c-0.3007784,0.7085171-1.0455446,1.8014984-2.4269691,1.8014984c-1.3537779,0-2.1293225-1.1960888-2.410696-1.8014984  c-0.3139787-0.6755619-0.3321476-1.7129059-0.3321476-2.1617985c0-2.0939674,1.2140326-2.9131565,2.7428436-2.9131565  S9.8322182,23.9936829,9.8322182,26.0533237z"/><path class="st10" d="M9.2728415,32.3043327h-4.477375c-0.0342045,0.2218475-1.0367608,5.1523819-1.9469187,6.6112862  c1.4339435,0.7789917,7.0535069,0.7465401,8.3711843,0C10.5737743,37.6708031,9.3102531,32.5196915,9.2728415,32.3043327z"/><path class="st9" d="M9.7996788,40.3258896c0.2899399,2.8256989-0.0880566,6.9728317-0.0880566,6.9728317H9.4749155  c-0.5408831,0-0.9737158-0.1635971-1.1907549-0.8147163c-0.4638524-1.3915558-0.8696065-6.0060158-0.8696065-6.0060158  C8.145051,40.4617767,9.1844263,40.4107857,9.7996788,40.3258896z"/><path class="st5" d="M22.4376755,36.8096771c0,0,0.5495529,4.6657715,0.7228527,6.3259583  c0.2836494,2.7173271,1.0917721,4.1055489,1.8519077,4.1055489h0.6536198c0,0-0.1274605-5.9815559-0.2767429-10.6649284  C24.5238571,36.7097015,23.4598751,36.7859802,22.4376755,36.8096771z"/><path class="st5" d="M18.2238331,36.5542374c-0.1495628,4.6877174-0.277422,10.6869469-0.277422,10.6869469h0.6536198  c0.7601757,0,1.568264-1.3882217,1.8519096-4.1055489c0.1733017-1.6602364,0.7228508-6.3261604,0.7228508-6.3261604  C20.1481247,36.7822685,19.0885296,36.6966972,18.2238331,36.5542374z"/><path class="st9" d="M27.8559704,22.1836796c-0.6670628-1.8920403-1.773716-2.8889866-3.1452637-3.3373928  c-0.8197384,0.4600563-1.7964973,0.7385941-2.8476582,0.7385941c-1.0529957,0-2.0314312-0.279377-2.8520451-0.7409077  c-1.3746204,0.4473686-2.4836273,1.4446335-3.1517277,3.3397064c-1.1264801,3.1952934-1.682745,6.2916985-3.2759428,9.2329865  c1.2255373,0.8578777,1.9873486-0.1408253,2.8187351-1.0621319c1.5114946-1.6749001,3.3301573-7.2973003,3.3301573-7.2973003  h2.4822712h1.2862549h2.4822693c0,0,2.4198761,5.3719368,3.9313717,7.0468369  c0.8314266,0.9213066,1.5931988,1.9200077,2.8187351,1.0621319C30.1399288,28.2249146,28.9824924,25.378973,27.8559704,22.1836796z"/><path class="st5" d="M25.3369045,13.8680344c0,0.5488901-0.1361847,1.9242859-0.4569321,2.6798401  c-0.3728542,0.8783016-1.296093,2.2332001-3.0085545,2.2332001c-1.6781902,0-2.6395817-1.4827137-2.9883823-2.2332001  c-0.3892174-0.8374491-0.4117413-2.1233768-0.4117413-2.6798401c0-2.5957546,1.5049572-3.611248,3.4001236-3.611248  S25.3369045,11.3148336,25.3369045,13.8680344z"/><path class="st9" d="M25.5038872,26.441103c-0.293766-0.7285404-0.0536175-3.6964893-0.1061974-4.057888h-7.059082  c-0.0480728,0.3722897,0.225462,3.1037922-0.1879406,4.1668262c-0.3812771,0.9804287-1.7566013,6.944706-2.1651144,8.2519455  c2.0153131,1.3072395,9.9132433,1.2527847,11.7651529,0C27.5055981,33.5764503,25.8443146,27.2853622,25.5038872,26.441103z"/><path class="st1" d="M47.5291023,21.4672279c-0.6394424-2.5805912-1.5174599-4.0245152-5.1164398-4.6183567  c-0.9111557,0.5448456-2.0163193,0.8774605-3.2101479,0.8774605c-1.2013092,0-2.3124886-0.3372574-3.2268677-0.8882065  c-3.5535088,0.549015-4.3584194,1.8564377-5.0993786,4.6291027c-0.7022781,2.6279526-1.0552731,6.2757988-0.8244743,8.8463764  c0.0357475,0.3980885,0.2412777,0.728035,0.4944077,0.9891758c0.4941883,0.5098305,1.3593636,0.2557964,1.5509472-0.4279041  c0.6123085-2.1851635,1.4856453-6.7202168,2.4423943-9.4076481h3.9852753h1.355732h3.9852753  c1.2116661,3.4034672,1.9028778,11.2363434,2.4466591,11.2202721L46.75,32.75c1.1086884,0,1.3265266-0.9932022,1.4294624-2.1399689  C48.4103012,28.0394554,48.1830711,24.106699,47.5291023,21.4672279z"/><path class="st5" d="M42.7951965,11.3088646c0,0.5913391-0.112896,1.4670181-0.2011833,2.2884865  c-0.0240936,0.2241497-0.1394043,0.726615-0.2206688,0.8802729c-0.3365326,0.7041693-1.1470642,1.6944056-1.9825249,2.1999884  c-0.2751122,0.1664848-0.8667717,0.2059212-1.1882858,0.2059212c-0.315033,0-0.9102325-0.0534668-1.1882858-0.19907  c-0.8945389-0.4684219-1.4992905-1.4439898-1.9607925-2.2068396c-0.0856972-0.163187-0.2118645-0.6739635-0.2334251-0.9079905  c-0.082592-0.8964415-0.2101593-1.6612701-0.2101593-2.2607689c0-2.7965031,1.55093-3.6088648,3.5926628-3.6088648  S42.7951965,8.5582056,42.7951965,11.3088646z"/><path class="st11" d="M18.0048218,27c1.557663,1.0625,6.557663,0.9375,7.6855469,0  c-0.0794678-0.258606-0.1435547-0.4524536-0.1864624-0.5588989c-0.1517944-0.3764038-0.1607666-1.3499146-0.1415405-2.2536011  c-1.4873657,0.875-5.674881,1-6.9812012,0c0.0115356,0.8677979-0.0220947,1.8267212-0.2304688,2.3625488  C18.1122437,26.6489258,18.0614624,26.8096924,18.0048218,27z"/><path class="st12" d="M34.0509033,47.5214844h1.6747437c0.8189697,0,1.5042114-0.6456909,1.5839233-1.4923706l1.3452759-14.2927856  c0.067688-0.8320313,1.0562134-0.8320313,1.0956421,0l1.3453369,14.2927856  c0.0796509,0.8466797,0.7648926,1.4923706,1.5838623,1.4923706h1.5617676c0,0-0.1244507-8.5914307-0.3167725-18.8214722h-9.4598389  C34.2420654,38.8980103,34.0509033,47.5214844,34.0509033,47.5214844z"/><path class="st23" d="M51.121582,47.5039063l1.0288086-0.000061c0.5031128,0,0.9240723-0.3694458,0.9730835-0.8540039  l0.826416-8.1792603c0.0415649-0.4761353,0.6488647-0.4761353,0.6730957,0l0.8264771,8.1792603  c0.0489502,0.4845581,0.4699097,0.8540039,0.9730225,0.8540039h0.9594116c0,0,0.1662598-5.3369141-0.0626831-11.5038452H51.234436  C50.9319458,42.1577148,50.8735962,47.541626,51.121582,47.5039063z"/></svg>