<?xml version="1.0" ?><!DOCTYPE svg  PUBLIC '-//W3C//DTD SVG 1.1//EN'  'http://www.w3.org/Graphics/SVG/1.1/DTD/svg11.dtd'><svg enable-background="new 0 0 256 256" height="256px" id="Layer_1" version="1.1" viewBox="0 0 256 256" width="256px" xml:space="preserve" xmlns="http://www.w3.org/2000/svg" xmlns:xlink="http://www.w3.org/1999/xlink"><g><g><g><g><path d="M119.965,51.805l-1.521-10.969c-0.255-1.836-1.842-3.221-3.691-3.221c-0.172,0-0.347,0.012-0.52,0.036       c-0.988,0.137-1.864,0.65-2.465,1.446c-0.602,0.795-0.858,1.777-0.721,2.765l1.479,10.664l-0.001,0.044l-1.688,63.055       l7.471-0.087l1.689-63.121C120.004,52.211,119.992,52.005,119.965,51.805z" fill="#FCD4CB"/><path d="M105.85,177.997l-12.517,63.295c0.498-0.203,1.031-0.328,1.585-0.354l6.154-0.294l12.054-60.949       L105.85,177.997z" fill="#FCD4CB"/><path d="M101.688,241.683l-6.719,0.321c-0.996,0.047-1.914,0.48-2.585,1.218       c-0.671,0.738-1.014,1.693-0.966,2.689c0.098,2.055,1.835,3.64,3.909,3.551l8.391-0.401c1.064-0.051,2.058-0.555,2.726-1.383       l8.304-10.281l-5.914-4.561L101.688,241.683z" fill="#FCD4CB"/><path d="M205.677,242.088l-0.579,0.089c-1.804,0.276-3.164,1.863-3.164,3.691c0,2.058,1.675,3.733,3.733,3.733       h4.8c1.157,0,2.23-0.523,2.942-1.435c0.712-0.912,0.96-2.079,0.68-3.202l-4.895-19.61l-7.065,2.525L205.677,242.088z" fill="#FCD4CB"/><path d="M106.046,159.355l-2.347,17.044l13.341,3.114l3.279-11.698       C114.422,167.146,109.303,163.947,106.046,159.355z" fill="#FFCC66"/><path d="M109.079,116.712l-2,17.781c3.715-4.398,9.276-7.161,15.53-7.161c0.123,0,0.247,0.001,0.37,0.003       c0.028-0.002,0.056-0.002,0.084-0.001l0.332,0.024l-0.601-10.807L109.079,116.712z" fill="#FFCC66"/><path d="M112.029,147.361c-0.109,4.129-2.544,7.818-6.25,9.569c3.183,5.737,9.215,9.719,16.216,9.945       c0.019,0.001,0.037,0.002,0.055,0.004l28.793,0.762l21.437-35.725l-49.235-3.514c-0.01,0.001-0.02,0-0.03,0       c-0.136-0.003-0.271-0.004-0.406-0.004c-6.937,0-12.976,3.59-16.358,9.054C109.885,139.389,112.139,143.215,112.029,147.361z        M126.865,136.426c2.763,0.073,5.491,1.891,8.107,5.402c1.85,2.483,3.025,5.019,3.259,5.542       c0.001,0.002,0.002,0.003,0.003,0.005c0.046,0.075,0.074,0.158,0.081,0.243c0.016,0.127-0.014,0.257-0.088,0.365       c-0.008,0.012-0.017,0.023-0.025,0.035c-0.731,1.424-5.539,10.304-11.746,10.304l-0.171-0.002       c-1.914-0.05-3.511-0.585-4.619-1.548c-1.199-1.041-1.807-2.564-1.758-4.404c0.068-2.564,1.187-4.307,3.207-5.087       c-1.977-0.886-3.002-2.686-2.933-5.251C120.278,138.432,122.8,136.32,126.865,136.426z" fill="#FFCC66"/><path d="M101.81,147.943c-0.037,1.404-0.211,2.771-0.509,4.086l2.595,0.069l0.101,0.388       c0.318,1.223,0.748,2.401,1.281,3.508c3.372-1.57,5.587-4.918,5.686-8.661c0.099-3.743-1.935-7.203-5.22-8.949       c-0.607,1.107-1.108,2.291-1.493,3.527l-0.12,0.385l-2.981-0.079C101.625,144.043,101.862,145.964,101.81,147.943z" fill="#FCD4CB"/><path d="M81.09,167.933c-0.118-0.001-0.235-0.002-0.353-0.005l-2.398-0.064       c-0.041,0.21-0.069,0.424-0.075,0.643c-0.028,1.053,0.355,2.053,1.08,2.817c0.725,0.764,1.704,1.201,2.756,1.228l0.105,0.002       c2.152,0,3.882-1.685,3.939-3.838c0.012-0.457-0.058-0.897-0.192-1.309c-1.391,0.318-2.836,0.496-4.323,0.519l-0.004,0.019       L81.09,167.933z" fill="#FCD4CB"/><path d="M83.542,122.796l-0.107-0.001c-2.152,0-3.882,1.686-3.939,3.837c-0.001,0.013,0.001,0.025,0.001,0.038       c0.88,0.063,1.456,0.154,1.614,0.181l0.712,0.019c1.883,0.05,3.7,0.358,5.421,0.881c0.076-0.292,0.124-0.596,0.133-0.911       C87.436,124.668,85.715,122.853,83.542,122.796z" fill="#FCD4CB"/><path d="M72.617,134.745c-1.383,0.666-2.936,1.087-4.306,1.356c0.644,0.413,1.239,0.893,1.746,1.449       c1.588,1.737,2.311,3.95,2.092,6.399c-0.483,5.398-0.431,9.337,4.664,10.873c1.836,0.554,3.219,1.738,4.1,3.487       c0.382-0.434,0.626-0.992,0.643-1.612c0.036-1.362-1.002-2.511-2.362-2.615c-0.294-0.022-0.514-0.279-0.491-0.572       c0.022-0.294,0.283-0.515,0.572-0.491c1.928,0.148,3.398,1.776,3.347,3.707c-0.029,1.061-0.512,2.004-1.261,2.648       c0.283,0.805,0.481,1.702,0.589,2.689c0.219,2.005,0.02,3.856-0.122,4.799c10.376-0.265,18.637-8.497,18.914-18.946       c0.284-10.732-8.215-19.694-18.947-19.979l-0.412-0.011C80.854,128.908,78.881,131.73,72.617,134.745z M79.578,141.583       c-0.004,0-0.008,0-0.012,0c-0.289,0-0.527-0.23-0.533-0.521c-0.007-0.294,0.227-0.539,0.521-0.546       c1.364-0.032,2.461-1.125,2.497-2.487c0.036-1.363-1.001-2.511-2.361-2.616c-0.294-0.022-0.514-0.279-0.491-0.572       c0.022-0.294,0.278-0.516,0.572-0.491c1.928,0.148,3.398,1.776,3.347,3.707C83.066,139.989,81.512,141.538,79.578,141.583z        M89.573,147.438c-0.052,1.932-1.606,3.481-3.539,3.526c-0.004,0-0.008,0-0.012,0c-0.142,0-0.278-0.056-0.378-0.157       c-0.103-0.103-0.159-0.245-0.156-0.391l0.163-6.168c0.004-0.146,0.068-0.284,0.176-0.382c0.108-0.098,0.252-0.147,0.398-0.136       C88.153,143.878,89.624,145.506,89.573,147.438z" fill="#FCD4CB"/><path d="M126.837,137.492c-0.089-0.002-0.178-0.003-0.265-0.003c-3.306,0-5.246,1.666-5.322,4.571       c-0.079,2.938,1.442,4.539,4.519,4.759c0.284,0.02,0.503,0.261,0.495,0.546c-0.008,0.285-0.238,0.514-0.523,0.519       c-3.084,0.058-4.688,1.576-4.765,4.513c-0.041,1.533,0.427,2.734,1.39,3.57c0.919,0.798,2.284,1.243,3.948,1.287l0.143,0.002       c5.417,0,9.96-8.14,10.732-9.601C136.49,146.142,132.328,137.638,126.837,137.492z" fill="#D10461"/><g><path d="M138.23,147.371c-0.234-0.524-1.409-3.059-3.259-5.542c-2.616-3.511-5.344-5.329-8.107-5.402        c-4.065-0.107-6.587,2.006-6.682,5.605c-0.068,2.564,0.956,4.364,2.933,5.251c-2.021,0.78-3.14,2.523-3.207,5.087        c-0.049,1.84,0.559,3.363,1.758,4.404c1.108,0.962,2.705,1.497,4.619,1.548l0.171,0.002c6.207,0,11.015-8.879,11.746-10.304        c0.009-0.011,0.018-0.023,0.025-0.035c0.073-0.108,0.104-0.239,0.088-0.365c-0.007-0.085-0.035-0.169-0.081-0.243        C138.233,147.374,138.231,147.373,138.23,147.371z M126.456,157.256l-0.143-0.002c-1.664-0.044-3.029-0.489-3.948-1.287        c-0.964-0.836-1.431-2.037-1.39-3.57c0.077-2.937,1.681-4.455,4.765-4.513c0.285-0.005,0.516-0.234,0.523-0.519        c0.007-0.285-0.211-0.526-0.495-0.546c-3.077-0.22-4.598-1.821-4.519-4.759c0.077-2.905,2.016-4.571,5.322-4.571        c0.088,0,0.176,0.001,0.265,0.003c5.491,0.146,9.654,8.65,10.352,10.163C136.416,149.116,131.873,157.256,126.456,157.256z" fill="#020202"/><path d="M86.225,143.732c-0.146-0.011-0.29,0.038-0.398,0.136c-0.108,0.098-0.172,0.236-0.176,0.382        l-0.163,6.168c-0.004,0.146,0.053,0.287,0.156,0.391c0.1,0.1,0.236,0.157,0.378,0.157c0.004,0,0.008,0,0.012,0        c1.932-0.045,3.486-1.594,3.539-3.526C89.624,145.506,88.153,143.878,86.225,143.732z" fill="#020202"/><path d="M79.77,134.351c-0.294-0.024-0.55,0.197-0.572,0.491c-0.022,0.293,0.197,0.55,0.491,0.572        c1.36,0.104,2.398,1.253,2.361,2.616c-0.036,1.363-1.133,2.455-2.497,2.487c-0.294,0.007-0.528,0.251-0.521,0.546        c0.007,0.29,0.244,0.521,0.533,0.521c0.004,0,0.008,0,0.012,0c1.933-0.045,3.488-1.594,3.539-3.525        C83.168,136.127,81.698,134.498,79.77,134.351z" fill="#020202"/></g></g><path d="M187.418,146.391c-0.529-0.759-5.781-7.99-15.772-11.536l-16.404,27.338l0.032,0.001      c-0.986,1.576-3.598,5.748-3.83,6.051l-46.011,60.107l10.367,7.995l58.713-65.953l0.42,1.075l22.378,56.806l12.34-4.41      L187.418,146.391z" fill="#020202"/><path d="M215.125,244.704l-4.92-19.712l0.745-0.266l-22.531-78.52l-0.067-0.146      c-0.128-0.195-3.207-4.809-9.451-8.73c-1.835-1.153-4.067-2.307-6.679-3.243l1.419-2.365c0.095-0.159,0.102-0.356,0.016-0.521      c-0.085-0.164-0.25-0.273-0.435-0.286l-48.754-3.48l-0.637-11.452c-0.016-0.283-0.249-0.504-0.532-0.504      c-0.002,0-0.004,0-0.006,0l-3.915,0.046l1.688-63.079c0.007-0.264-0.008-0.529-0.044-0.788L119.5,40.689      c-0.328-2.361-2.368-4.141-4.747-4.141c-0.221,0-0.446,0.015-0.666,0.046c-1.27,0.176-2.396,0.836-3.169,1.858      c-0.773,1.023-1.103,2.285-0.927,3.555l1.467,10.577l-1.687,63.052l-1.175,0.014c-0.269,0.003-0.494,0.206-0.524,0.474      l-2.188,19.449c-0.014,0.125,0.024,0.247,0.093,0.351c-1.123,1.602-2.021,3.377-2.647,5.283l-2.493-0.066      c-1.939-6.039-6.605-10.889-12.578-13.052c0.107-0.39,0.175-0.797,0.186-1.221c0.072-2.76-2.114-5.066-4.874-5.139l-0.135-0.002      c-2.734,0-4.933,2.142-5.005,4.876c0,0.005,0,0.01,0,0.015c-2.924-0.073-7.731,0.341-12.071,3.139      c-3.193,1.955-5.8,4.76-7.512,8.122c-1.887-1.507-4.195-2.367-6.651-2.432c-6.227-0.169-11.298,4.672-11.463,10.87      c-0.079,2.983,1.008,5.818,3.061,7.983c2.054,2.165,4.827,3.401,7.81,3.48c0.101,0.003,0.202,0.004,0.302,0.004      c2.437,0,4.677-0.773,6.505-2.079c0.052,0.115,0.113,0.224,0.167,0.337c0.15,0.316,0.299,0.633,0.465,0.941      c0.05,0.094,0.108,0.182,0.16,0.275c0.18,0.322,0.361,0.644,0.557,0.955c0.046,0.073,0.098,0.141,0.145,0.213      c0.211,0.326,0.425,0.649,0.654,0.961c0.045,0.062,0.096,0.119,0.142,0.18c0.237,0.317,0.479,0.631,0.733,0.934      c0.066,0.078,0.138,0.15,0.205,0.227c0.243,0.28,0.487,0.558,0.744,0.824c0.077,0.08,0.161,0.154,0.24,0.232      c0.255,0.256,0.51,0.51,0.778,0.752c0.1,0.09,0.207,0.172,0.309,0.26c0.255,0.221,0.509,0.444,0.776,0.653      c0.134,0.105,0.276,0.2,0.412,0.302c0.243,0.181,0.483,0.366,0.734,0.536c0.177,0.12,0.363,0.228,0.544,0.343      c0.22,0.14,0.435,0.285,0.661,0.416c0.231,0.135,0.472,0.255,0.708,0.381c0.184,0.098,0.364,0.203,0.552,0.296      c0.271,0.133,0.551,0.251,0.829,0.372c0.162,0.071,0.319,0.15,0.483,0.217c0.296,0.121,0.6,0.224,0.903,0.331      c0.153,0.054,0.302,0.117,0.456,0.167c0.354,0.116,0.716,0.214,1.079,0.31c0.108,0.029,0.214,0.066,0.323,0.093      c1.423,0.355,2.905,0.561,4.43,0.602l0.19,0.005l0.47,0.013c-0.032,0.21-0.056,0.424-0.062,0.643      c-0.035,1.337,0.452,2.608,1.372,3.579s2.165,1.525,3.502,1.561l0.133,0.002c2.734,0,4.933-2.142,5.006-4.876      c0.015-0.558-0.067-1.096-0.223-1.602c6.793-1.929,12.11-7.231,14.041-14.054l2.037,0.054c0.092,0.324,0.191,0.644,0.298,0.961      c0.327,0.981,0.724,1.927,1.187,2.825l0.223,0.433l0.022-0.009c0.117,0.213,0.237,0.423,0.361,0.631l-2.582,18.751      c-0.038,0.273,0.139,0.53,0.407,0.592l1.828,0.427l-12.711,64.277c-0.177,0.146-0.347,0.301-0.505,0.474      c-0.862,0.949-1.303,2.177-1.242,3.457c0.123,2.564,2.227,4.571,4.791,4.571c0.077,0,0.153-0.002,0.233-0.006l8.393-0.401      c1.368-0.066,2.645-0.714,3.505-1.779l8.318-10.299l0.143,0.11l58.403-65.604l22.558,57.265l4.425-1.581l3.246,13.007      c-2.03,0.575-3.499,2.468-3.499,4.621c0,2.647,2.153,4.8,4.8,4.8h4.8c1.487,0,2.867-0.673,3.783-1.846      C215.166,247.648,215.485,246.148,215.125,244.704z M83.436,122.794l0.107,0.001c2.172,0.058,3.893,1.872,3.836,4.045      c-0.008,0.316-0.057,0.62-0.133,0.911c-1.721-0.523-3.538-0.832-5.421-0.881l-0.712-0.019c-0.157-0.027-0.734-0.119-1.614-0.181      c0-0.013-0.002-0.025-0.001-0.038C79.554,124.48,81.284,122.794,83.436,122.794z M51.658,156.671      c-5.569-0.143-9.984-4.791-9.841-10.36c0.143-5.57,4.791-9.985,10.36-9.842c2.378,0.061,4.543,0.949,6.234,2.374      c-0.392,0.875-0.72,1.776-0.986,2.697c-0.009,0.034-0.019,0.069-0.029,0.103c-0.083,0.294-0.16,0.59-0.23,0.888      c-0.005,0.022-0.275,1.33-0.36,1.974c-0.011,0.083-0.084,0.728-0.104,0.967c-0.007,0.09-0.064,0.906-0.072,1.226      c-0.064,2.476,0.317,4.863,1.067,7.083c0.095,0.283,0.199,0.562,0.306,0.839C56.241,155.957,54.036,156.732,51.658,156.671z       M76.822,166.706c-10.734-0.178-19.322-9.057-19.144-19.79c0.029-1.754,0.303-3.469,0.783-5.119      c0.048,0.201,0.75-4.32,6.092-9.343c5.496-5.169,13.068-4.945,15.46-4.723c-0.712,1.084-2.749,3.466-7.991,6.052      c-3.166,1.562-7.509,1.784-7.553,1.786c-0.294,0.015-0.516,0.268-0.508,0.558c0.007,0.145,0.072,0.272,0.17,0.364      c0.102,0.095,0.239,0.152,0.388,0.145c0.075-0.004,0.849-0.044,1.96-0.199c0.701,0.301,1.365,0.682,1.95,1.159      c1.747,1.424,2.689,3.461,2.651,5.737c-0.003,0.175-0.012,0.352-0.027,0.532c-0.073,0.914-0.152,1.975-0.168,2.993      c-0.06,3.585,0.572,7.45,5.706,8.942c1.776,0.516,2.888,1.67,3.571,3.079c0.179,0.359,0.281,0.51,0.405,0.991      c0.471,1.426,0.599,3.009,0.576,4.428c-0.017,1.071-0.126,1.97-0.2,2.474L76.822,166.706z M82.205,172.555l-0.105-0.002      c-1.053-0.028-2.031-0.464-2.756-1.228c-0.724-0.764-1.108-1.765-1.08-2.817c0.006-0.219,0.034-0.433,0.075-0.643l2.398,0.064      c0.118,0.003,0.235,0.004,0.353,0.005l0.535,0.014l0.004-0.019c1.486-0.023,2.932-0.202,4.323-0.519      c0.133,0.412,0.204,0.852,0.192,1.309C86.087,170.869,84.356,172.555,82.205,172.555z M100.743,147.915      c-0.277,10.449-8.538,18.681-18.914,18.946c0.142-0.943,0.341-2.795,0.122-4.799c-0.108-0.987-0.306-1.884-0.589-2.689      c0.749-0.644,1.232-1.587,1.261-2.648c0.051-1.931-1.419-3.56-3.347-3.707c-0.29-0.024-0.551,0.197-0.572,0.491      c-0.022,0.294,0.197,0.55,0.491,0.572c1.36,0.104,2.398,1.253,2.362,2.615c-0.017,0.621-0.261,1.179-0.643,1.612      c-0.881-1.749-2.264-2.933-4.1-3.487c-5.095-1.535-5.147-5.475-4.664-10.873c0.22-2.449-0.504-4.662-2.092-6.399      c-0.508-0.555-1.102-1.035-1.746-1.449c1.369-0.269,2.922-0.69,4.306-1.356c6.264-3.015,8.237-5.837,8.767-6.82l0.412,0.011      C92.528,128.221,101.027,137.183,100.743,147.915z M112.525,52.57l0.001-0.044l-1.479-10.664      c-0.137-0.988,0.119-1.97,0.721-2.765c0.602-0.796,1.477-1.309,2.465-1.446c0.172-0.024,0.347-0.036,0.52-0.036      c1.849,0,3.436,1.385,3.691,3.221l1.521,10.969c0.028,0.2,0.039,0.406,0.033,0.612l-1.689,63.121l-7.471,0.087L112.525,52.57z       M109.079,116.712l13.715-0.16l0.601,10.807l-0.332-0.024c-0.028-0.001-0.056-0.001-0.084,0.001      c-0.123-0.002-0.247-0.003-0.37-0.003c-6.254,0-11.815,2.763-15.53,7.161L109.079,116.712z M122.609,128.399      c0.135,0,0.27,0.002,0.406,0.004c0.01,0,0.02,0.001,0.03,0l49.235,3.514l-21.437,35.725l-28.793-0.762      c-0.018-0.002-0.036-0.004-0.055-0.004c-7.002-0.226-13.033-4.208-16.216-9.945c3.706-1.751,6.141-5.441,6.25-9.569      c0.109-4.146-2.145-7.972-5.779-9.909C109.633,131.989,115.671,128.399,122.609,128.399z M149.862,168.683l-45.123,58.918      l9.427-47.663l3.129,0.73c0.041,0.009,0.082,0.014,0.122,0.014c0.234,0,0.447-0.155,0.513-0.39l3.47-12.383      c0.168,0.01,0.334,0.024,0.503,0.03c0.02,0.003,0.041,0.005,0.062,0.005L149.862,168.683z M103.996,152.486l-0.101-0.388      l-2.595-0.069c0.298-1.316,0.472-2.682,0.509-4.086c0.053-1.98-0.184-3.9-0.661-5.727l2.981,0.079l0.12-0.385      c0.385-1.236,0.886-2.42,1.493-3.527c3.285,1.746,5.319,5.206,5.22,8.949c-0.099,3.744-2.314,7.091-5.686,8.661      C104.744,154.888,104.314,153.71,103.996,152.486z M103.698,176.399l2.347-17.044c3.258,4.592,8.376,7.791,14.272,8.46      l-3.279,11.698L103.698,176.399z M105.85,177.997l7.275,1.698l-12.054,60.949l-6.154,0.294      c-0.554,0.027-1.086,0.151-1.585,0.354L105.85,177.997z M107.989,232.184l-5.504,6.815l1.897-9.597L107.989,232.184z       M106.443,247.678c-0.668,0.828-1.662,1.332-2.726,1.383l-8.391,0.401c-2.073,0.089-3.81-1.496-3.909-3.551      c-0.048-0.996,0.295-1.951,0.966-2.689c0.671-0.738,1.589-1.171,2.585-1.218l6.719-0.321l7.146-8.847l5.914,4.561      L106.443,247.678z M197.31,228.276l-22.378-56.806l-0.42-1.075L115.8,236.347l-10.367-7.995l46.011-60.107      c0.232-0.303,2.844-4.475,3.83-6.051l-0.032-0.001l16.404-27.338c9.991,3.546,15.243,10.777,15.772,11.536l22.231,77.474      L197.31,228.276z M213.41,248.165c-0.713,0.912-1.785,1.435-2.942,1.435h-4.8c-2.058,0-3.733-1.675-3.733-3.733      c0-1.828,1.36-3.415,3.164-3.691l0.579-0.089l-3.546-14.21l7.065-2.525l4.895,19.61      C214.37,246.085,214.122,247.252,213.41,248.165z" fill="#020202"/><path d="M56.631,146.699c0.008-0.32,0.065-1.136,0.072-1.226c0.02-0.24,0.093-0.884,0.104-0.967      c0.085-0.644,0.355-1.952,0.36-1.974c0.07-0.298,0.146-0.594,0.23-0.888c0.01-0.034,0.02-0.069,0.029-0.103      c0.266-0.921,0.594-1.822,0.986-2.697c-1.692-1.425-3.856-2.313-6.234-2.374c-5.57-0.143-10.218,4.272-10.36,9.842      c-0.143,5.57,4.272,10.217,9.841,10.36c2.378,0.061,4.583-0.714,6.346-2.049c-0.107-0.277-0.211-0.557-0.306-0.839      C56.948,151.562,56.567,149.176,56.631,146.699z" fill="#824040"/><path d="M81.144,164.296c0.024-1.419-0.104-3.002-0.576-4.428c-0.124-0.48-0.227-0.632-0.405-0.991      c-0.683-1.409-1.795-2.563-3.571-3.079c-5.134-1.492-5.766-5.357-5.706-8.942c0.017-1.018,0.095-2.079,0.168-2.993      c0.015-0.18,0.023-0.357,0.027-0.532c0.038-2.276-0.903-4.314-2.651-5.737c-0.585-0.477-1.249-0.858-1.95-1.159      c-1.111,0.155-1.885,0.195-1.96,0.199c-0.149,0.007-0.286-0.049-0.388-0.145c-0.097-0.092-0.163-0.219-0.17-0.364      c-0.008-0.29,0.214-0.543,0.508-0.558c0.044-0.002,4.387-0.224,7.553-1.786c5.241-2.586,7.278-4.969,7.991-6.052      c-2.392-0.223-9.965-0.446-15.46,4.723c-5.342,5.023-6.044,9.544-6.092,9.343c-0.48,1.65-0.754,3.365-0.783,5.119      c-0.178,10.734,8.41,19.612,19.144,19.79l4.122,0.065C81.018,166.266,81.127,165.368,81.144,164.296z" fill="#824040"/></g></g></g></svg>