<?xml version="1.0" ?><svg id="Layer_5" style="enable-background:new 0 0 64 64;" version="1.1" viewBox="0 0 64 64" xml:space="preserve" xmlns="http://www.w3.org/2000/svg" xmlns:xlink="http://www.w3.org/1999/xlink"><g><g><g><rect height="12" style="fill:#F0D0B4;" width="6" x="10" y="50"/></g><g><path d="M16,49.9V50h-6H8V39.92c0-2.07,1.06-3.94,2.72-5.01C14.12,39.14,16,44.42,16,49.9z" style="fill:#EF7385;"/></g><g><path d="M27,61v1H16V50v-0.1c0-5.48-1.88-10.76-5.28-14.99c0.62-0.42,1.33-0.72,2.1-0.87l8.22-1.65L21,40     l6-2v4v4v4v4v4V61z" style="fill:#EF7385;"/></g><g><polygon points="23,32 27,38 21,40 21.04,32.39    " style="fill:#ED5565;"/></g><g><path d="M27,29v9l-4-6l0.74-3.7C24.74,28.75,25.84,29,27,29z" style="fill:#F0D0B4;"/></g><g><path d="M19.06,22H18c-0.83,0-1.58-0.34-2.12-0.88C15.34,20.58,15,19.83,15,19c0-1.66,1.34-3,3-3h1v5     C19,21.34,19.02,21.67,19.06,22z" style="fill:#F0D0B4;"/></g><g><path d="M27,25v4c-1.16,0-2.26-0.25-3.26-0.7c-2.5-1.11-4.33-3.48-4.68-6.3C19.02,21.67,19,21.34,19,21v-5     v-2h0.76c2.71,0,5.32-1.08,7.24-3V25z" style="fill:#F0D0B4;"/></g><g><path d="M27,6v5c-1.92,1.92-4.53,3-7.24,3H19v2h-1c-1.66,0-3,1.34-3,3l-4-4l2.87-3.59V11.4l-0.44-0.33     C12.53,10.4,12,9.34,12,8.21c0-1.35,0.77-2.59,1.98-3.2c1.98-0.99,4.06-1.74,6.2-2.25C22.32,2.26,24.52,2,26.73,2H27V6z" style="fill:#FCD770;"/></g><g><path d="M56,2v60h-4l-4-24c0-2.21-1.79-4-4-4l-12-2l-1-3l-0.06-0.16C32.14,28.45,33,27.33,33,26v-2     l0.35-0.21c2.88-1.73,4.65-4.85,4.65-8.21c0-2.64-1.07-5.04-2.81-6.77C33.46,7.07,31.06,6,28.42,6H27V2H56z" style="fill:#E6E9ED;"/></g><g><path d="M48,38l4,24h-4l-3.21-20.08C46.62,41.55,48,39.94,48,38z" style="fill:#F0D0B4;"/></g><g><path d="M44,34c2.21,0,4,1.79,4,4c0,1.94-1.38,3.55-3.21,3.92C44.54,41.97,44.27,42,44,42     c-2.21,0-4-1.79-4-4S41.79,34,44,34z" style="fill:#ECC19C;"/></g><g><path d="M40,38c0,2.21,1.79,4,4,4c0.27,0,0.54-0.03,0.79-0.08L48,62H27v-1v-3v-4v-4v-4v-4v-4v-9h3     c0.33,0,0.65-0.05,0.94-0.16L31,29l1,3l12,2C41.79,34,40,35.79,40,38z" style="fill:#F0D0B4;"/></g><g><path d="M27,25V11V6h1.42c2.64,0,5.04,1.07,6.77,2.81c1.74,1.73,2.81,4.13,2.81,6.77     c0,3.36-1.77,6.48-4.65,8.21L33,24v2c0,1.33-0.86,2.45-2.06,2.84C30.65,28.95,30.33,29,30,29h-3V25z" style="fill:#F0D0B4;"/></g><g><path d="M34,14.41v1.18c0,0.78-0.63,1.41-1.41,1.41c-0.38,0-0.74-0.15-1-0.41l-1.18-1.18     c-0.26-0.26-0.41-0.62-0.41-1c0-0.78,0.63-1.41,1.41-1.41h1.18C33.37,13,34,13.63,34,14.41z" style="fill:#838F9B;"/></g></g><g><path d="M28,1h-1h-0.267c-4.558,0-9.124,1.077-13.203,3.116C11.969,4.897,11,6.466,11,8.211c0,1.273,0.543,2.494,1.467,3.354    L9.66,15.074l4.386,4.386C14.278,21.448,15.952,23,18,23h0.232c0.572,2.51,2.193,4.622,4.379,5.849l-0.46,2.301l-9.523,1.904    C9.367,33.707,7,36.595,7,39.919V51h2v12h48V1H28z M32,26c0,1.103-0.897,2-2,2h-2V7h0.423C33.152,7,37,10.848,37,15.577    c0,2.995-1.596,5.813-4.164,7.355L32,23.434V26z M16,19c0-1.103,0.897-2,2-2v4C16.897,21,16,20.103,16,19z M18,13v2    c-1.511,0-2.814,0.852-3.494,2.092l-2.166-2.166l1.711-2.138L15.4,13.8l1.2-1.6l-2.569-1.927C13.386,9.789,13,9.018,13,8.211    c0-0.982,0.546-1.866,1.425-2.306C18.009,4.114,21.996,3.118,26,3.01v7.549C24.291,12.13,22.093,13,19.757,13H18z M20,21v-6.003    c2.168-0.045,4.233-0.703,6-1.888v10.764c-1.15-0.282-2-1.022-2-1.873h-2c0,1.932,1.721,3.547,4,3.919v2.001    C22.613,27.432,20,24.519,20,21z M26,29.941v4.756l-1.938-2.908l0.431-2.152C24.98,29.779,25.483,29.883,26,29.941z     M22.539,33.112l2.903,4.354l-3.436,1.145l0.025-5.397L22.539,33.112z M9,39.919c0-1.387,0.588-2.656,1.531-3.574    c2.699,3.675,4.248,8.099,4.43,12.655H9V39.919z M11,51h4v10h-4V51z M17,61V49.899c0-5.258-1.706-10.405-4.791-14.646    c0.26-0.1,0.53-0.182,0.81-0.238l7.01-1.402l-0.036,7.776L26,39.387V61H17z M28,58.087C28.29,57.74,30.006,57,33,57    c3.003,0,4.721,0.744,5.004,1.09C38.049,58.6,38.478,59,39,59c0.552,0,1-0.447,1-1c0-2.072-3.516-3-7-3    c-1.831,0-3.666,0.259-5,0.803v-1.717C28.29,53.74,30.006,53,33,53c3.003,0,4.721,0.744,5.004,1.09C38.049,54.6,38.478,55,39,55    c0.552,0,1-0.447,1-1c0-2.072-3.516-3-7-3c-1.831,0-3.666,0.259-5,0.803v-1.717C28.29,49.74,30.006,49,33,49    c3.003,0,4.721,0.744,5.004,1.09C38.049,50.6,38.478,51,39,51c0.552,0,1-0.447,1-1c0-2.072-3.516-3-7-3    c-1.831,0-3.666,0.259-5,0.803v-1.717C28.29,45.74,30.006,45,33,45c3.003,0,4.721,0.744,5.004,1.09C38.049,46.6,38.478,47,39,47    c0.552,0,1-0.447,1-1c0-2.072-3.516-3-7-3c-1.831,0-3.666,0.259-5,0.803v-1.717C28.29,41.74,30.006,41,33,41    c3.003,0,4.721,0.744,5.004,1.09C38.049,42.6,38.478,43,39,43c0.552,0,1-0.447,1-1c0-2.072-3.516-3-7-3    c-1.831,0-3.666,0.259-5,0.803V30h2c0.092,0,0.179-0.021,0.27-0.027l0.972,2.915l9.266,1.544C39.58,35.34,39,36.602,39,38    c0,2.739,2.215,4.965,4.947,4.995L46.827,61H28V58.087z M47.568,41.492L50.82,61h-1.967l-2.941-18.383    C46.539,42.356,47.1,41.971,47.568,41.492z M44,41c-1.654,0-3-1.346-3-3s1.346-3,3-3s3,1.346,3,3S45.654,41,44,41z M55,61h-2.153    l-3.861-23.164l-0.003,0c-0.087-2.624-2.195-4.733-4.819-4.82l0-0.003l-11.406-1.901l-0.587-1.762C33.269,28.637,34,27.405,34,26    v-1.436c3.088-1.918,5-5.347,5-8.987C39,9.745,34.255,5,28.423,5H28V3h27V61z"/><circle cx="23" cy="18" r="1"/><path d="M35,15.586v-1.172C35,13.083,33.917,12,32.586,12h-1.172C30.083,12,29,13.083,29,14.414c0,0.637,0.258,1.259,0.707,1.707    l1.172,1.173C31.329,17.742,31.951,18,32.586,18C33.917,18,35,16.917,35,15.586z M33,15.586c0,0.338-0.468,0.532-0.707,0.293    l-1.172-1.173C31.044,14.63,31,14.523,31,14.414C31,14.186,31.186,14,31.414,14h1.172C32.814,14,33,14.186,33,14.414V15.586z"/><circle cx="44" cy="38" r="1"/></g></g></svg>