<?xml version="1.0" ?><svg height="60" id="Biology" viewBox="0 0 60 60" width="60" xmlns="http://www.w3.org/2000/svg"><title/><path d="M47.55,37.45a23.51315,23.51315,0,0,1-2.31,5.83C41.58,50.4,35.19,56.71,28.71,57.24c-3.51.29-2.97-1.63-4.34-1.63-1.46,0-1.65,1.86-4.82,1.47C11.99,56.13,3,41.97,3,32.01,3,21.44,9.36,14.53,22.04,17.68c.85.2,1.72.46,2.62.76,9.52-2.14,16.09-.93,19.85,2.77,2.39,2.34,3.65,5.68,3.83,9.79A21.84458,21.84458,0,0,1,47.55,37.45Z" style="fill:#ff9797"/><path d="M48.34,31a14.96154,14.96154,0,0,0-2.742-8.52966A18.33153,18.33153,0,0,1,46.34,27a21.84446,21.84446,0,0,1-.79,6.45A23.5117,23.5117,0,0,1,43.24,39.28C39.58,46.4,33.19,52.71,26.71,53.24c-3.51.29-2.97-1.63-4.34-1.63-1.46,0-1.65,1.86-4.82,1.47-4.21661-.52985-8.87653-5.17059-12.17487-10.89862C8.5517,49.6123,14.38379,56.43079,19.55,57.08c3.17.39,3.36-1.47,4.82-1.47,1.37,0,.83,1.92,4.34,1.63,6.48-.53,12.87-6.84,16.53-13.96A23.5117,23.5117,0,0,0,47.55,37.45,21.84446,21.84446,0,0,0,48.34,31Z" style="fill:#750000;opacity:0.2"/><path d="M52,31a5.00182,5.00182,0,0,0,5-5V38a5.00182,5.00182,0,0,1-5,5H15V31Z" style="fill:#fff27d"/><path d="M52,21a5,5,0,0,1,0,10H48.34c-.18-4.11-1.44-7.45-3.83-9.79l.2-.21Z" style="fill:#ffc661"/><path d="M48.34,31h3c.41187-4.1261-2.98615-9.95612-4.06323-10H44.71S48.16,26.89,48.34,31Z" style="fill:#750000;opacity:0.2"/><path d="M45.055,5.78c-.79,1.94-1.57,3.76-6.98,6.02s-9.73,1.78-12.49,2.5c0-2.87.66-8.36,6.07-10.62C37.075,1.42,43.105,3.61,45.055,5.78Z" style="fill:#b1f1a8"/><path d="M45.055,5.78c-.79,1.94-1.57,3.76-6.98,6.02s-9.73,1.78-12.49,2.5C27.43749,9.5625,38.75,4.875,45.055,5.78Z" style="fill:#2c4b75;opacity:0.2"/><ellipse cx="14.50656" cy="23.79607" rx="6.54272" ry="4.125" style="fill:#fff;opacity:0.5" transform="translate(-5.50415 4.39853) rotate(-14.5241)"/><ellipse cx="32.86182" cy="24.125" rx="7.86182" ry="4.125" style="fill:#fff;opacity:0.5" transform="translate(-3.30402 5.31152) rotate(-8.80022)"/><rect height="12" style="fill:#fff;opacity:0.5" width="6" x="21" y="31"/><path d="M52,31H51V43h1a5.00181,5.00181,0,0,0,5-5V26A5.00181,5.00181,0,0,1,52,31Z" style="fill:#750000;opacity:0.2"/><path d="M57,27V26a5.00182,5.00182,0,0,0-5-5H44.71" style="fill:none;stroke:#6d6daa;stroke-linecap:round;stroke-linejoin:round;stroke-width:2px"/><path d="M37.7,11.8c-5.41,2.26-9.73,1.78-12.49,2.5,0-2.87.66-8.36,6.07-10.62,5.42-2.26,11.45-.07,13.4,2.1C43.89,7.72,43.11,9.54,37.7,11.8Z" style="fill:none;stroke:#6d6daa;stroke-linecap:round;stroke-linejoin:round;stroke-width:2px"/><path d="M45.24,43.28C41.58,50.4,35.19,56.71,28.71,57.24c-3.51.29-2.97-1.63-4.34-1.63-1.46,0-1.65,1.86-4.82,1.47C11.99,56.13,3,41.97,3,32.01,3,21.44,9.36,14.53,22.04,17.68c.85.2,1.72.46,2.62.76,9.52-2.14,16.09-.93,19.85,2.77,2.39,2.34,3.65,5.68,3.83,9.79" style="fill:none;stroke:#6d6daa;stroke-linecap:round;stroke-linejoin:round;stroke-width:2px"/><path d="M22.07,4.12A19.43594,19.43594,0,0,1,25.21,14.3a16.37342,16.37342,0,0,1-.48,4.08" style="fill:none;stroke:#6d6daa;stroke-linecap:round;stroke-linejoin:round;stroke-width:2px"/><path d="M57,27V38a5.00182,5.00182,0,0,1-5,5H15V31H52a5.00182,5.00182,0,0,0,5-5" style="fill:none;stroke:#6d6daa;stroke-linecap:round;stroke-linejoin:round;stroke-width:2px"/><line style="fill:none;stroke:#6d6daa;stroke-linecap:round;stroke-linejoin:round;stroke-width:2px" x1="21" x2="21" y1="31" y2="37"/><line style="fill:none;stroke:#6d6daa;stroke-linecap:round;stroke-linejoin:round;stroke-width:2px" x1="27" x2="27" y1="31" y2="37"/><line style="fill:none;stroke:#6d6daa;stroke-linecap:round;stroke-linejoin:round;stroke-width:2px" x1="33" x2="33" y1="31" y2="37"/><line style="fill:none;stroke:#6d6daa;stroke-linecap:round;stroke-linejoin:round;stroke-width:2px" x1="39" x2="39" y1="31" y2="37"/><line style="fill:none;stroke:#6d6daa;stroke-linecap:round;stroke-linejoin:round;stroke-width:2px" x1="45" x2="45" y1="31" y2="37"/><line style="fill:none;stroke:#6d6daa;stroke-linecap:round;stroke-linejoin:round;stroke-width:2px" x1="51" x2="51" y1="31" y2="37"/></svg>